<mxfile host="app.diagrams.net" modified="2023-04-22T08:23:09.635Z" agent="Mozilla/5.0 (X11; Linux x86_64) AppleWebKit/537.36 (KHTML, like Gecko) Chrome/110.0.0.0 Safari/537.36 Edg/110.0.1587.50" etag="YisLFvscY9q9OM_hmWXz" version="21.1.4" type="device">
  <diagram id="C5RBs43oDa-KdzZeNtuy" name="Page-1">
    <mxGraphModel dx="474" dy="1957" grid="1" gridSize="10" guides="1" tooltips="1" connect="1" arrows="1" fold="1" page="1" pageScale="1" pageWidth="827" pageHeight="1169" math="0" shadow="0">
      <root>
        <mxCell id="WIyWlLk6GJQsqaUBKTNV-0" />
        <mxCell id="WIyWlLk6GJQsqaUBKTNV-1" parent="WIyWlLk6GJQsqaUBKTNV-0" />
        <mxCell id="zkfFHV4jXpPFQw0GAbJ--17" value="BasicStudent" style="swimlane;fontStyle=0;align=center;verticalAlign=top;childLayout=stackLayout;horizontal=1;startSize=26;horizontalStack=0;resizeParent=1;resizeLast=0;collapsible=1;marginBottom=0;rounded=0;shadow=0;strokeWidth=1;swimlaneFillColor=default;" parent="WIyWlLk6GJQsqaUBKTNV-1" vertex="1">
          <mxGeometry x="200" y="-150" width="500" height="360" as="geometry">
            <mxRectangle x="550" y="140" width="160" height="26" as="alternateBounds" />
          </mxGeometry>
        </mxCell>
        <mxCell id="zkfFHV4jXpPFQw0GAbJ--18" value="«get/set»+id: String" style="text;align=left;verticalAlign=top;spacingLeft=4;spacingRight=4;overflow=hidden;rotatable=0;points=[[0,0.5],[1,0.5]];portConstraint=eastwest;" parent="zkfFHV4jXpPFQw0GAbJ--17" vertex="1">
          <mxGeometry y="26" width="500" height="26" as="geometry" />
        </mxCell>
        <mxCell id="0jIwW-mB24Nk2oX_LSpt-2" value="«get/set»+github_username: String" style="text;align=left;verticalAlign=top;spacingLeft=4;spacingRight=4;overflow=hidden;rotatable=0;points=[[0,0.5],[1,0.5]];portConstraint=eastwest;rounded=0;shadow=0;html=0;" parent="zkfFHV4jXpPFQw0GAbJ--17" vertex="1">
          <mxGeometry y="52" width="500" height="26" as="geometry" />
        </mxCell>
        <mxCell id="zkfFHV4jXpPFQw0GAbJ--23" value="" style="line;html=1;strokeWidth=1;align=left;verticalAlign=middle;spacingTop=-1;spacingLeft=3;spacingRight=3;rotatable=0;labelPosition=right;points=[];portConstraint=eastwest;" parent="zkfFHV4jXpPFQw0GAbJ--17" vertex="1">
          <mxGeometry y="78" width="500" height="22" as="geometry" />
        </mxCell>
        <mxCell id="zkfFHV4jXpPFQw0GAbJ--24" value="+valid_phone?(value: String): bool" style="text;align=left;verticalAlign=top;spacingLeft=4;spacingRight=4;overflow=hidden;rotatable=0;points=[[0,0.5],[1,0.5]];portConstraint=eastwest;fontStyle=4" parent="zkfFHV4jXpPFQw0GAbJ--17" vertex="1">
          <mxGeometry y="100" width="500" height="26" as="geometry" />
        </mxCell>
        <mxCell id="0jIwW-mB24Nk2oX_LSpt-3" value="+valid_name?(value: String): bool" style="text;align=left;verticalAlign=top;spacingLeft=4;spacingRight=4;overflow=hidden;rotatable=0;points=[[0,0.5],[1,0.5]];portConstraint=eastwest;fontStyle=4" parent="zkfFHV4jXpPFQw0GAbJ--17" vertex="1">
          <mxGeometry y="126" width="500" height="26" as="geometry" />
        </mxCell>
        <mxCell id="0jIwW-mB24Nk2oX_LSpt-4" value="+valid_surname?(value: String): bool" style="text;align=left;verticalAlign=top;spacingLeft=4;spacingRight=4;overflow=hidden;rotatable=0;points=[[0,0.5],[1,0.5]];portConstraint=eastwest;fontStyle=4" parent="zkfFHV4jXpPFQw0GAbJ--17" vertex="1">
          <mxGeometry y="152" width="500" height="26" as="geometry" />
        </mxCell>
        <mxCell id="0jIwW-mB24Nk2oX_LSpt-5" value="+valid_patronymic?(value: String): bool" style="text;align=left;verticalAlign=top;spacingLeft=4;spacingRight=4;overflow=hidden;rotatable=0;points=[[0,0.5],[1,0.5]];portConstraint=eastwest;fontStyle=4" parent="zkfFHV4jXpPFQw0GAbJ--17" vertex="1">
          <mxGeometry y="178" width="500" height="26" as="geometry" />
        </mxCell>
        <mxCell id="0jIwW-mB24Nk2oX_LSpt-6" value="+valid_telegram_username?(value: String): bool" style="text;align=left;verticalAlign=top;spacingLeft=4;spacingRight=4;overflow=hidden;rotatable=0;points=[[0,0.5],[1,0.5]];portConstraint=eastwest;fontStyle=4" parent="zkfFHV4jXpPFQw0GAbJ--17" vertex="1">
          <mxGeometry y="204" width="500" height="26" as="geometry" />
        </mxCell>
        <mxCell id="0jIwW-mB24Nk2oX_LSpt-7" value="+valid_email?(value: String): bool" style="text;align=left;verticalAlign=top;spacingLeft=4;spacingRight=4;overflow=hidden;rotatable=0;points=[[0,0.5],[1,0.5]];portConstraint=eastwest;fontStyle=4" parent="zkfFHV4jXpPFQw0GAbJ--17" vertex="1">
          <mxGeometry y="230" width="500" height="26" as="geometry" />
        </mxCell>
        <mxCell id="0jIwW-mB24Nk2oX_LSpt-8" value="+valid_github_username?(value: String): bool" style="text;align=left;verticalAlign=top;spacingLeft=4;spacingRight=4;overflow=hidden;rotatable=0;points=[[0,0.5],[1,0.5]];portConstraint=eastwest;fontStyle=4" parent="zkfFHV4jXpPFQw0GAbJ--17" vertex="1">
          <mxGeometry y="256" width="500" height="26" as="geometry" />
        </mxCell>
        <mxCell id="0jIwW-mB24Nk2oX_LSpt-9" value="+valid_id?(value: String): bool" style="text;align=left;verticalAlign=top;spacingLeft=4;spacingRight=4;overflow=hidden;rotatable=0;points=[[0,0.5],[1,0.5]];portConstraint=eastwest;fontStyle=4" parent="zkfFHV4jXpPFQw0GAbJ--17" vertex="1">
          <mxGeometry y="282" width="500" height="26" as="geometry" />
        </mxCell>
        <mxCell id="0jIwW-mB24Nk2oX_LSpt-10" value="+github_username_exist?(): bool" style="text;align=left;verticalAlign=top;spacingLeft=4;spacingRight=4;overflow=hidden;rotatable=0;points=[[0,0.5],[1,0.5]];portConstraint=eastwest;" parent="zkfFHV4jXpPFQw0GAbJ--17" vertex="1">
          <mxGeometry y="308" width="500" height="26" as="geometry" />
        </mxCell>
        <mxCell id="9F78Hj_hJA_kpTCqYAxS-0" value="Student" style="swimlane;fontStyle=0;align=center;verticalAlign=top;childLayout=stackLayout;horizontal=1;startSize=26;horizontalStack=0;resizeParent=1;resizeLast=0;collapsible=1;marginBottom=0;rounded=0;shadow=0;strokeWidth=1;swimlaneFillColor=default;" parent="WIyWlLk6GJQsqaUBKTNV-1" vertex="1">
          <mxGeometry x="920" y="-450" width="500" height="590" as="geometry">
            <mxRectangle x="550" y="140" width="160" height="26" as="alternateBounds" />
          </mxGeometry>
        </mxCell>
        <mxCell id="9F78Hj_hJA_kpTCqYAxS-2" value="«get/set»+name: String" style="text;align=left;verticalAlign=top;spacingLeft=4;spacingRight=4;overflow=hidden;rotatable=0;points=[[0,0.5],[1,0.5]];portConstraint=eastwest;rounded=0;shadow=0;html=0;" parent="9F78Hj_hJA_kpTCqYAxS-0" vertex="1">
          <mxGeometry y="26" width="500" height="26" as="geometry" />
        </mxCell>
        <mxCell id="9F78Hj_hJA_kpTCqYAxS-3" value="«get/set»+surname: String" style="text;align=left;verticalAlign=top;spacingLeft=4;spacingRight=4;overflow=hidden;rotatable=0;points=[[0,0.5],[1,0.5]];portConstraint=eastwest;rounded=0;shadow=0;html=0;" parent="9F78Hj_hJA_kpTCqYAxS-0" vertex="1">
          <mxGeometry y="52" width="500" height="26" as="geometry" />
        </mxCell>
        <mxCell id="9F78Hj_hJA_kpTCqYAxS-4" value="«get/set»+patronymic: String" style="text;align=left;verticalAlign=top;spacingLeft=4;spacingRight=4;overflow=hidden;rotatable=0;points=[[0,0.5],[1,0.5]];portConstraint=eastwest;rounded=0;shadow=0;html=0;" parent="9F78Hj_hJA_kpTCqYAxS-0" vertex="1">
          <mxGeometry y="78" width="500" height="26" as="geometry" />
        </mxCell>
        <mxCell id="9F78Hj_hJA_kpTCqYAxS-5" value="«get/set»+phone: String" style="text;align=left;verticalAlign=top;spacingLeft=4;spacingRight=4;overflow=hidden;rotatable=0;points=[[0,0.5],[1,0.5]];portConstraint=eastwest;rounded=0;shadow=0;html=0;" parent="9F78Hj_hJA_kpTCqYAxS-0" vertex="1">
          <mxGeometry y="104" width="500" height="26" as="geometry" />
        </mxCell>
        <mxCell id="9F78Hj_hJA_kpTCqYAxS-6" value="«get/set»+teleram_username: String" style="text;align=left;verticalAlign=top;spacingLeft=4;spacingRight=4;overflow=hidden;rotatable=0;points=[[0,0.5],[1,0.5]];portConstraint=eastwest;rounded=0;shadow=0;html=0;" parent="9F78Hj_hJA_kpTCqYAxS-0" vertex="1">
          <mxGeometry y="130" width="500" height="26" as="geometry" />
        </mxCell>
        <mxCell id="9F78Hj_hJA_kpTCqYAxS-7" value="«get/set»+email: String" style="text;align=left;verticalAlign=top;spacingLeft=4;spacingRight=4;overflow=hidden;rotatable=0;points=[[0,0.5],[1,0.5]];portConstraint=eastwest;rounded=0;shadow=0;html=0;" parent="9F78Hj_hJA_kpTCqYAxS-0" vertex="1">
          <mxGeometry y="156" width="500" height="26" as="geometry" />
        </mxCell>
        <mxCell id="9F78Hj_hJA_kpTCqYAxS-9" value="" style="line;html=1;strokeWidth=1;align=left;verticalAlign=middle;spacingTop=-1;spacingLeft=3;spacingRight=3;rotatable=0;labelPosition=right;points=[];portConstraint=eastwest;" parent="9F78Hj_hJA_kpTCqYAxS-0" vertex="1">
          <mxGeometry y="182" width="500" height="22" as="geometry" />
        </mxCell>
        <mxCell id="9F78Hj_hJA_kpTCqYAxS-23" value="+initialize(id: String, name:String, surname:String, patronymic:String&#xa;, phone:String, telegram_username:String, email:String, github_username:String): nil" style="text;align=left;verticalAlign=top;spacingLeft=4;spacingRight=4;overflow=hidden;rotatable=0;points=[[0,0.5],[1,0.5]];portConstraint=eastwest;" parent="9F78Hj_hJA_kpTCqYAxS-0" vertex="1">
          <mxGeometry y="204" width="500" height="42" as="geometry" />
        </mxCell>
        <mxCell id="9F78Hj_hJA_kpTCqYAxS-29" value="+read_from_txt_ctor(file: String): Student[ ]" style="text;align=left;verticalAlign=top;spacingLeft=4;spacingRight=4;overflow=hidden;rotatable=0;points=[[0,0.5],[1,0.5]];portConstraint=eastwest;fontStyle=4" parent="9F78Hj_hJA_kpTCqYAxS-0" vertex="1">
          <mxGeometry y="246" width="500" height="26" as="geometry" />
        </mxCell>
        <mxCell id="9F78Hj_hJA_kpTCqYAxS-24" value="+student_from_string_ctor(obj: String): Student" style="text;align=left;verticalAlign=top;spacingLeft=4;spacingRight=4;overflow=hidden;rotatable=0;points=[[0,0.5],[1,0.5]];portConstraint=eastwest;fontStyle=4" parent="9F78Hj_hJA_kpTCqYAxS-0" vertex="1">
          <mxGeometry y="272" width="500" height="26" as="geometry" />
        </mxCell>
        <mxCell id="9F78Hj_hJA_kpTCqYAxS-10" value="+to_s(): String" style="text;align=left;verticalAlign=top;spacingLeft=4;spacingRight=4;overflow=hidden;rotatable=0;points=[[0,0.5],[1,0.5]];portConstraint=eastwest;" parent="9F78Hj_hJA_kpTCqYAxS-0" vertex="1">
          <mxGeometry y="298" width="500" height="26" as="geometry" />
        </mxCell>
        <mxCell id="9F78Hj_hJA_kpTCqYAxS-20" value="+contact_exist?(): bool" style="text;align=left;verticalAlign=top;spacingLeft=4;spacingRight=4;overflow=hidden;rotatable=0;points=[[0,0.5],[1,0.5]];portConstraint=eastwest;" parent="9F78Hj_hJA_kpTCqYAxS-0" vertex="1">
          <mxGeometry y="324" width="500" height="26" as="geometry" />
        </mxCell>
        <mxCell id="9F78Hj_hJA_kpTCqYAxS-21" value="+validate?(): bool" style="text;align=left;verticalAlign=top;spacingLeft=4;spacingRight=4;overflow=hidden;rotatable=0;points=[[0,0.5],[1,0.5]];portConstraint=eastwest;" parent="9F78Hj_hJA_kpTCqYAxS-0" vertex="1">
          <mxGeometry y="350" width="500" height="26" as="geometry" />
        </mxCell>
        <mxCell id="9F78Hj_hJA_kpTCqYAxS-22" value="+set_contacts!(email: String, phone: String, telegram_username: String): nil" style="text;align=left;verticalAlign=top;spacingLeft=4;spacingRight=4;overflow=hidden;rotatable=0;points=[[0,0.5],[1,0.5]];portConstraint=eastwest;" parent="9F78Hj_hJA_kpTCqYAxS-0" vertex="1">
          <mxGeometry y="376" width="500" height="26" as="geometry" />
        </mxCell>
        <mxCell id="9F78Hj_hJA_kpTCqYAxS-26" value="+get_github_username(): String" style="text;align=left;verticalAlign=top;spacingLeft=4;spacingRight=4;overflow=hidden;rotatable=0;points=[[0,0.5],[1,0.5]];portConstraint=eastwest;fontStyle=0" parent="9F78Hj_hJA_kpTCqYAxS-0" vertex="1">
          <mxGeometry y="402" width="500" height="26" as="geometry" />
        </mxCell>
        <mxCell id="9F78Hj_hJA_kpTCqYAxS-27" value="+get_contact(): String" style="text;align=left;verticalAlign=top;spacingLeft=4;spacingRight=4;overflow=hidden;rotatable=0;points=[[0,0.5],[1,0.5]];portConstraint=eastwest;fontStyle=0" parent="9F78Hj_hJA_kpTCqYAxS-0" vertex="1">
          <mxGeometry y="428" width="500" height="26" as="geometry" />
        </mxCell>
        <mxCell id="9F78Hj_hJA_kpTCqYAxS-28" value="+get_info(): String" style="text;align=left;verticalAlign=top;spacingLeft=4;spacingRight=4;overflow=hidden;rotatable=0;points=[[0,0.5],[1,0.5]];portConstraint=eastwest;fontStyle=0" parent="9F78Hj_hJA_kpTCqYAxS-0" vertex="1">
          <mxGeometry y="454" width="500" height="26" as="geometry" />
        </mxCell>
        <mxCell id="9F78Hj_hJA_kpTCqYAxS-30" value="+write_to_txt(file: String, students_array: Student[ ]): nil" style="text;align=left;verticalAlign=top;spacingLeft=4;spacingRight=4;overflow=hidden;rotatable=0;points=[[0,0.5],[1,0.5]];portConstraint=eastwest;fontStyle=4" parent="9F78Hj_hJA_kpTCqYAxS-0" vertex="1">
          <mxGeometry y="480" width="500" height="26" as="geometry" />
        </mxCell>
        <mxCell id="9F78Hj_hJA_kpTCqYAxS-25" value="+get_initials(str: String): String" style="text;align=left;verticalAlign=top;spacingLeft=4;spacingRight=4;overflow=hidden;rotatable=0;points=[[0,0.5],[1,0.5]];portConstraint=eastwest;fontStyle=4" parent="9F78Hj_hJA_kpTCqYAxS-0" vertex="1">
          <mxGeometry y="506" width="500" height="26" as="geometry" />
        </mxCell>
        <mxCell id="7bPtvLklRIi0uL-i7zXn-5" value="+each(&amp;block): nil" style="text;align=left;verticalAlign=top;spacingLeft=4;spacingRight=4;overflow=hidden;rotatable=0;points=[[0,0.5],[1,0.5]];portConstraint=eastwest;fontStyle=0" parent="9F78Hj_hJA_kpTCqYAxS-0" vertex="1">
          <mxGeometry y="532" width="500" height="26" as="geometry" />
        </mxCell>
        <mxCell id="7bPtvLklRIi0uL-i7zXn-6" value="+each_with_name(&amp;block): nil" style="text;align=left;verticalAlign=top;spacingLeft=4;spacingRight=4;overflow=hidden;rotatable=0;points=[[0,0.5],[1,0.5]];portConstraint=eastwest;fontStyle=0" parent="9F78Hj_hJA_kpTCqYAxS-0" vertex="1">
          <mxGeometry y="558" width="500" height="26" as="geometry" />
        </mxCell>
        <mxCell id="9F78Hj_hJA_kpTCqYAxS-31" value="StudentShort" style="swimlane;fontStyle=0;align=center;verticalAlign=top;childLayout=stackLayout;horizontal=1;startSize=26;horizontalStack=0;resizeParent=1;resizeLast=0;collapsible=1;marginBottom=0;rounded=0;shadow=0;strokeWidth=1;swimlaneFillColor=default;" parent="WIyWlLk6GJQsqaUBKTNV-1" vertex="1">
          <mxGeometry x="200" y="322" width="500" height="220" as="geometry">
            <mxRectangle x="550" y="140" width="160" height="26" as="alternateBounds" />
          </mxGeometry>
        </mxCell>
        <mxCell id="9F78Hj_hJA_kpTCqYAxS-32" value="«set»-id: String" style="text;align=left;verticalAlign=top;spacingLeft=4;spacingRight=4;overflow=hidden;rotatable=0;points=[[0,0.5],[1,0.5]];portConstraint=eastwest;" parent="9F78Hj_hJA_kpTCqYAxS-31" vertex="1">
          <mxGeometry y="26" width="500" height="26" as="geometry" />
        </mxCell>
        <mxCell id="9F78Hj_hJA_kpTCqYAxS-33" value="«set»-github_username: String" style="text;align=left;verticalAlign=top;spacingLeft=4;spacingRight=4;overflow=hidden;rotatable=0;points=[[0,0.5],[1,0.5]];portConstraint=eastwest;rounded=0;shadow=0;html=0;" parent="9F78Hj_hJA_kpTCqYAxS-31" vertex="1">
          <mxGeometry y="52" width="500" height="26" as="geometry" />
        </mxCell>
        <mxCell id="9F78Hj_hJA_kpTCqYAxS-44" value="«+get/set»-surname_with_initials: String" style="text;align=left;verticalAlign=top;spacingLeft=4;spacingRight=4;overflow=hidden;rotatable=0;points=[[0,0.5],[1,0.5]];portConstraint=eastwest;rounded=0;shadow=0;html=0;" parent="9F78Hj_hJA_kpTCqYAxS-31" vertex="1">
          <mxGeometry y="78" width="500" height="26" as="geometry" />
        </mxCell>
        <mxCell id="9F78Hj_hJA_kpTCqYAxS-45" value="«+get/set»-contact: String" style="text;align=left;verticalAlign=top;spacingLeft=4;spacingRight=4;overflow=hidden;rotatable=0;points=[[0,0.5],[1,0.5]];portConstraint=eastwest;rounded=0;shadow=0;html=0;" parent="9F78Hj_hJA_kpTCqYAxS-31" vertex="1">
          <mxGeometry y="104" width="500" height="26" as="geometry" />
        </mxCell>
        <mxCell id="9F78Hj_hJA_kpTCqYAxS-34" value="" style="line;html=1;strokeWidth=1;align=left;verticalAlign=middle;spacingTop=-1;spacingLeft=3;spacingRight=3;rotatable=0;labelPosition=right;points=[];portConstraint=eastwest;" parent="9F78Hj_hJA_kpTCqYAxS-31" vertex="1">
          <mxGeometry y="130" width="500" height="22" as="geometry" />
        </mxCell>
        <mxCell id="9F78Hj_hJA_kpTCqYAxS-43" value="+initialize(id: String, str: String): void" style="text;align=left;verticalAlign=top;spacingLeft=4;spacingRight=4;overflow=hidden;rotatable=0;points=[[0,0.5],[1,0.5]];portConstraint=eastwest;" parent="9F78Hj_hJA_kpTCqYAxS-31" vertex="1">
          <mxGeometry y="152" width="500" height="26" as="geometry" />
        </mxCell>
        <mxCell id="9F78Hj_hJA_kpTCqYAxS-47" value="+from_students_ctor(student: Student): StudentShort" style="text;align=left;verticalAlign=top;spacingLeft=4;spacingRight=4;overflow=hidden;rotatable=0;points=[[0,0.5],[1,0.5]];portConstraint=eastwest;fontStyle=4" parent="9F78Hj_hJA_kpTCqYAxS-31" vertex="1">
          <mxGeometry y="178" width="500" height="26" as="geometry" />
        </mxCell>
        <mxCell id="9F78Hj_hJA_kpTCqYAxS-48" value="" style="endArrow=block;endFill=0;endSize=24;html=1;rounded=0;entryX=1;entryY=0.5;entryDx=0;entryDy=0;exitX=0;exitY=0.5;exitDx=0;exitDy=0;" parent="WIyWlLk6GJQsqaUBKTNV-1" source="9F78Hj_hJA_kpTCqYAxS-20" target="zkfFHV4jXpPFQw0GAbJ--18" edge="1">
          <mxGeometry width="160" relative="1" as="geometry">
            <mxPoint x="900" y="-220" as="sourcePoint" />
            <mxPoint x="950" y="530" as="targetPoint" />
          </mxGeometry>
        </mxCell>
        <mxCell id="9F78Hj_hJA_kpTCqYAxS-50" value="" style="endArrow=block;endFill=0;endSize=24;html=1;rounded=0;exitX=0.5;exitY=0;exitDx=0;exitDy=0;entryX=0.5;entryY=1;entryDx=0;entryDy=0;" parent="WIyWlLk6GJQsqaUBKTNV-1" source="9F78Hj_hJA_kpTCqYAxS-31" target="zkfFHV4jXpPFQw0GAbJ--17" edge="1">
          <mxGeometry width="160" relative="1" as="geometry">
            <mxPoint x="898" y="265" as="sourcePoint" />
            <mxPoint x="420" y="400" as="targetPoint" />
          </mxGeometry>
        </mxCell>
        <mxCell id="9F78Hj_hJA_kpTCqYAxS-51" value="Module: Parser" style="swimlane;fontStyle=0;align=center;verticalAlign=top;childLayout=stackLayout;horizontal=1;startSize=26;horizontalStack=0;resizeParent=1;resizeLast=0;collapsible=1;marginBottom=0;rounded=0;shadow=0;strokeWidth=1;swimlaneFillColor=default;" parent="WIyWlLk6GJQsqaUBKTNV-1" vertex="1">
          <mxGeometry x="1000" y="630" width="630" height="130" as="geometry">
            <mxRectangle x="550" y="140" width="160" height="26" as="alternateBounds" />
          </mxGeometry>
        </mxCell>
        <mxCell id="9F78Hj_hJA_kpTCqYAxS-57" value="+parse(str: String, separator: String, pair_separator: String, fields_for_parsing: Symbol[ ]): hash{Symbol =&gt; String}" style="text;align=left;verticalAlign=top;spacingLeft=4;spacingRight=4;overflow=hidden;rotatable=0;points=[[0,0.5],[1,0.5]];portConstraint=eastwest;" parent="9F78Hj_hJA_kpTCqYAxS-51" vertex="1">
          <mxGeometry y="26" width="630" height="26" as="geometry" />
        </mxCell>
        <mxCell id="9F78Hj_hJA_kpTCqYAxS-59" value="+parse_txt(file: String, separator: String): String[ ]" style="text;align=left;verticalAlign=top;spacingLeft=4;spacingRight=4;overflow=hidden;rotatable=0;points=[[0,0.5],[1,0.5]];portConstraint=eastwest;" parent="9F78Hj_hJA_kpTCqYAxS-51" vertex="1">
          <mxGeometry y="52" width="630" height="26" as="geometry" />
        </mxCell>
        <mxCell id="9F78Hj_hJA_kpTCqYAxS-60" value="+write_txt(file: String, separator: String ,string_array: Strinng[ ]): nil" style="text;align=left;verticalAlign=top;spacingLeft=4;spacingRight=4;overflow=hidden;rotatable=0;points=[[0,0.5],[1,0.5]];portConstraint=eastwest;" parent="9F78Hj_hJA_kpTCqYAxS-51" vertex="1">
          <mxGeometry y="78" width="630" height="26" as="geometry" />
        </mxCell>
        <mxCell id="9F78Hj_hJA_kpTCqYAxS-63" value="Extends" style="endArrow=open;endSize=16;endFill=0;html=1;rounded=0;entryX=1;entryY=1;entryDx=0;entryDy=0;exitX=0.099;exitY=-0.015;exitDx=0;exitDy=0;exitPerimeter=0;dashed=1;" parent="WIyWlLk6GJQsqaUBKTNV-1" source="9F78Hj_hJA_kpTCqYAxS-51" target="zkfFHV4jXpPFQw0GAbJ--17" edge="1">
          <mxGeometry width="160" relative="1" as="geometry">
            <mxPoint x="730" y="550" as="sourcePoint" />
            <mxPoint x="890" y="550" as="targetPoint" />
            <Array as="points">
              <mxPoint x="1062" y="210" />
            </Array>
          </mxGeometry>
        </mxCell>
        <mxCell id="LajVdY8BO4-VR4iBwgiG-0" value="DataTable" style="swimlane;fontStyle=0;align=center;verticalAlign=top;childLayout=stackLayout;horizontal=1;startSize=26;horizontalStack=0;resizeParent=1;resizeLast=0;collapsible=1;marginBottom=0;rounded=0;shadow=0;strokeWidth=1;swimlaneFillColor=default;" parent="WIyWlLk6GJQsqaUBKTNV-1" vertex="1">
          <mxGeometry x="600" y="950" width="370" height="190" as="geometry">
            <mxRectangle x="550" y="140" width="160" height="26" as="alternateBounds" />
          </mxGeometry>
        </mxCell>
        <mxCell id="LajVdY8BO4-VR4iBwgiG-3" value="«+get/-set»-table: String[ ][ ]" style="text;align=left;verticalAlign=top;spacingLeft=4;spacingRight=4;overflow=hidden;rotatable=0;points=[[0,0.5],[1,0.5]];portConstraint=eastwest;rounded=0;shadow=0;html=0;" parent="LajVdY8BO4-VR4iBwgiG-0" vertex="1">
          <mxGeometry y="26" width="370" height="26" as="geometry" />
        </mxCell>
        <mxCell id="LajVdY8BO4-VR4iBwgiG-5" value="" style="line;html=1;strokeWidth=1;align=left;verticalAlign=middle;spacingTop=-1;spacingLeft=3;spacingRight=3;rotatable=0;labelPosition=right;points=[];portConstraint=eastwest;" parent="LajVdY8BO4-VR4iBwgiG-0" vertex="1">
          <mxGeometry y="52" width="370" height="22" as="geometry" />
        </mxCell>
        <mxCell id="LajVdY8BO4-VR4iBwgiG-6" value="+initialize(table: String[ ][ ]): void" style="text;align=left;verticalAlign=top;spacingLeft=4;spacingRight=4;overflow=hidden;rotatable=0;points=[[0,0.5],[1,0.5]];portConstraint=eastwest;" parent="LajVdY8BO4-VR4iBwgiG-0" vertex="1">
          <mxGeometry y="74" width="370" height="26" as="geometry" />
        </mxCell>
        <mxCell id="LajVdY8BO4-VR4iBwgiG-8" value="+get_element(row: Integer, col: Integer): String" style="text;align=left;verticalAlign=top;spacingLeft=4;spacingRight=4;overflow=hidden;rotatable=0;points=[[0,0.5],[1,0.5]];portConstraint=eastwest;" parent="LajVdY8BO4-VR4iBwgiG-0" vertex="1">
          <mxGeometry y="100" width="370" height="26" as="geometry" />
        </mxCell>
        <mxCell id="LajVdY8BO4-VR4iBwgiG-9" value="+get_rows_number(): Integer" style="text;align=left;verticalAlign=top;spacingLeft=4;spacingRight=4;overflow=hidden;rotatable=0;points=[[0,0.5],[1,0.5]];portConstraint=eastwest;" parent="LajVdY8BO4-VR4iBwgiG-0" vertex="1">
          <mxGeometry y="126" width="370" height="26" as="geometry" />
        </mxCell>
        <mxCell id="LajVdY8BO4-VR4iBwgiG-10" value="+get_cols_number(): Integer" style="text;align=left;verticalAlign=top;spacingLeft=4;spacingRight=4;overflow=hidden;rotatable=0;points=[[0,0.5],[1,0.5]];portConstraint=eastwest;" parent="LajVdY8BO4-VR4iBwgiG-0" vertex="1">
          <mxGeometry y="152" width="370" height="26" as="geometry" />
        </mxCell>
        <mxCell id="LajVdY8BO4-VR4iBwgiG-11" value="DataList" style="swimlane;fontStyle=0;align=center;verticalAlign=top;childLayout=stackLayout;horizontal=1;startSize=26;horizontalStack=0;resizeParent=1;resizeLast=0;collapsible=1;marginBottom=0;rounded=0;shadow=0;strokeWidth=1;swimlaneFillColor=default;" parent="WIyWlLk6GJQsqaUBKTNV-1" vertex="1">
          <mxGeometry x="1230" y="820" width="239" height="320" as="geometry">
            <mxRectangle x="550" y="140" width="160" height="26" as="alternateBounds" />
          </mxGeometry>
        </mxCell>
        <mxCell id="LajVdY8BO4-VR4iBwgiG-12" value="«-get/+set»-list: Object[ ]" style="text;align=left;verticalAlign=top;spacingLeft=4;spacingRight=4;overflow=hidden;rotatable=0;points=[[0,0.5],[1,0.5]];portConstraint=eastwest;rounded=0;shadow=0;html=0;" parent="LajVdY8BO4-VR4iBwgiG-11" vertex="1">
          <mxGeometry y="26" width="239" height="26" as="geometry" />
        </mxCell>
        <mxCell id="LajVdY8BO4-VR4iBwgiG-18" value="«get/set»-selected: Object[ ]" style="text;align=left;verticalAlign=top;spacingLeft=4;spacingRight=4;overflow=hidden;rotatable=0;points=[[0,0.5],[1,0.5]];portConstraint=eastwest;rounded=0;shadow=0;html=0;" parent="LajVdY8BO4-VR4iBwgiG-11" vertex="1">
          <mxGeometry y="52" width="239" height="26" as="geometry" />
        </mxCell>
        <mxCell id="LajVdY8BO4-VR4iBwgiG-13" value="" style="line;html=1;strokeWidth=1;align=left;verticalAlign=middle;spacingTop=-1;spacingLeft=3;spacingRight=3;rotatable=0;labelPosition=right;points=[];portConstraint=eastwest;" parent="LajVdY8BO4-VR4iBwgiG-11" vertex="1">
          <mxGeometry y="78" width="239" height="22" as="geometry" />
        </mxCell>
        <mxCell id="LajVdY8BO4-VR4iBwgiG-14" value="+initialize(list: Object[ ]): void" style="text;align=left;verticalAlign=top;spacingLeft=4;spacingRight=4;overflow=hidden;rotatable=0;points=[[0,0.5],[1,0.5]];portConstraint=eastwest;" parent="LajVdY8BO4-VR4iBwgiG-11" vertex="1">
          <mxGeometry y="100" width="239" height="26" as="geometry" />
        </mxCell>
        <mxCell id="LajVdY8BO4-VR4iBwgiG-15" value="+select(number: Integer): nil" style="text;align=left;verticalAlign=top;spacingLeft=4;spacingRight=4;overflow=hidden;rotatable=0;points=[[0,0.5],[1,0.5]];portConstraint=eastwest;" parent="LajVdY8BO4-VR4iBwgiG-11" vertex="1">
          <mxGeometry y="126" width="239" height="26" as="geometry" />
        </mxCell>
        <mxCell id="LajVdY8BO4-VR4iBwgiG-16" value="+get_selected(): Objects[ ]" style="text;align=left;verticalAlign=top;spacingLeft=4;spacingRight=4;overflow=hidden;rotatable=0;points=[[0,0.5],[1,0.5]];portConstraint=eastwest;" parent="LajVdY8BO4-VR4iBwgiG-11" vertex="1">
          <mxGeometry y="152" width="239" height="26" as="geometry" />
        </mxCell>
        <mxCell id="LajVdY8BO4-VR4iBwgiG-17" value="+get_names(): String[ ]" style="text;align=left;verticalAlign=top;spacingLeft=4;spacingRight=4;overflow=hidden;rotatable=0;points=[[0,0.5],[1,0.5]];portConstraint=eastwest;" parent="LajVdY8BO4-VR4iBwgiG-11" vertex="1">
          <mxGeometry y="178" width="239" height="26" as="geometry" />
        </mxCell>
        <mxCell id="LajVdY8BO4-VR4iBwgiG-19" value="+get_data(): DataTable" style="text;align=left;verticalAlign=top;spacingLeft=4;spacingRight=4;overflow=hidden;rotatable=0;points=[[0,0.5],[1,0.5]];portConstraint=eastwest;" parent="LajVdY8BO4-VR4iBwgiG-11" vertex="1">
          <mxGeometry y="204" width="239" height="26" as="geometry" />
        </mxCell>
        <mxCell id="LajVdY8BO4-VR4iBwgiG-20" value="Protected:" style="text;align=left;verticalAlign=top;spacingLeft=4;spacingRight=4;overflow=hidden;rotatable=0;points=[[0,0.5],[1,0.5]];portConstraint=eastwest;" parent="LajVdY8BO4-VR4iBwgiG-11" vertex="1">
          <mxGeometry y="230" width="239" height="26" as="geometry" />
        </mxCell>
        <mxCell id="LajVdY8BO4-VR4iBwgiG-21" value="get_objects_attr(obj: Object): String[ ] " style="text;align=left;verticalAlign=top;spacingLeft=4;spacingRight=4;overflow=hidden;rotatable=0;points=[[0,0.5],[1,0.5]];portConstraint=eastwest;" parent="LajVdY8BO4-VR4iBwgiG-11" vertex="1">
          <mxGeometry y="256" width="239" height="26" as="geometry" />
        </mxCell>
        <mxCell id="LajVdY8BO4-VR4iBwgiG-22" value="get_objects_attr_names(): String[ ] " style="text;align=left;verticalAlign=top;spacingLeft=4;spacingRight=4;overflow=hidden;rotatable=0;points=[[0,0.5],[1,0.5]];portConstraint=eastwest;" parent="LajVdY8BO4-VR4iBwgiG-11" vertex="1">
          <mxGeometry y="282" width="239" height="26" as="geometry" />
        </mxCell>
        <mxCell id="LajVdY8BO4-VR4iBwgiG-23" value="DataListStudentShort" style="swimlane;fontStyle=0;align=center;verticalAlign=top;childLayout=stackLayout;horizontal=1;startSize=26;horizontalStack=0;resizeParent=1;resizeLast=0;collapsible=1;marginBottom=0;rounded=0;shadow=0;strokeWidth=1;swimlaneFillColor=default;" parent="WIyWlLk6GJQsqaUBKTNV-1" vertex="1">
          <mxGeometry x="1650" y="900" width="312" height="130" as="geometry">
            <mxRectangle x="550" y="140" width="160" height="26" as="alternateBounds" />
          </mxGeometry>
        </mxCell>
        <mxCell id="LajVdY8BO4-VR4iBwgiG-26" value="" style="line;html=1;strokeWidth=1;align=left;verticalAlign=middle;spacingTop=-1;spacingLeft=3;spacingRight=3;rotatable=0;labelPosition=right;points=[];portConstraint=eastwest;" parent="LajVdY8BO4-VR4iBwgiG-23" vertex="1">
          <mxGeometry y="26" width="312" height="22" as="geometry" />
        </mxCell>
        <mxCell id="LajVdY8BO4-VR4iBwgiG-33" value="-get_objects_attr(obj: ShortStudent): String[ ] " style="text;align=left;verticalAlign=top;spacingLeft=4;spacingRight=4;overflow=hidden;rotatable=0;points=[[0,0.5],[1,0.5]];portConstraint=eastwest;" parent="LajVdY8BO4-VR4iBwgiG-23" vertex="1">
          <mxGeometry y="48" width="312" height="26" as="geometry" />
        </mxCell>
        <mxCell id="LajVdY8BO4-VR4iBwgiG-34" value="-get_objects_attr_names(): String[ ] " style="text;align=left;verticalAlign=top;spacingLeft=4;spacingRight=4;overflow=hidden;rotatable=0;points=[[0,0.5],[1,0.5]];portConstraint=eastwest;" parent="LajVdY8BO4-VR4iBwgiG-23" vertex="1">
          <mxGeometry y="74" width="312" height="26" as="geometry" />
        </mxCell>
        <mxCell id="LajVdY8BO4-VR4iBwgiG-35" value="" style="endArrow=block;endFill=0;endSize=24;html=1;rounded=0;exitX=0;exitY=0.5;exitDx=0;exitDy=0;entryX=1;entryY=0.5;entryDx=0;entryDy=0;" parent="WIyWlLk6GJQsqaUBKTNV-1" source="LajVdY8BO4-VR4iBwgiG-34" target="LajVdY8BO4-VR4iBwgiG-16" edge="1">
          <mxGeometry width="160" relative="1" as="geometry">
            <mxPoint x="1450" y="830" as="sourcePoint" />
            <mxPoint x="1450" y="710" as="targetPoint" />
          </mxGeometry>
        </mxCell>
        <mxCell id="7bPtvLklRIi0uL-i7zXn-0" value="Module: Enumerable" style="swimlane;fontStyle=0;align=center;verticalAlign=top;childLayout=stackLayout;horizontal=1;startSize=26;horizontalStack=0;resizeParent=1;resizeLast=0;collapsible=1;marginBottom=0;rounded=0;shadow=0;strokeWidth=1;swimlaneFillColor=default;" parent="WIyWlLk6GJQsqaUBKTNV-1" vertex="1">
          <mxGeometry x="835" y="-584" width="670" height="70" as="geometry">
            <mxRectangle x="550" y="140" width="160" height="26" as="alternateBounds" />
          </mxGeometry>
        </mxCell>
        <mxCell id="7bPtvLklRIi0uL-i7zXn-4" value="Extends" style="endArrow=open;endSize=16;endFill=0;html=1;rounded=0;entryX=0.5;entryY=0;entryDx=0;entryDy=0;exitX=0.5;exitY=1;exitDx=0;exitDy=0;dashed=1;" parent="WIyWlLk6GJQsqaUBKTNV-1" source="7bPtvLklRIi0uL-i7zXn-0" target="9F78Hj_hJA_kpTCqYAxS-0" edge="1">
          <mxGeometry width="160" relative="1" as="geometry">
            <mxPoint x="816" y="98" as="sourcePoint" />
            <mxPoint x="664" y="-150" as="targetPoint" />
          </mxGeometry>
        </mxCell>
        <mxCell id="7bPtvLklRIi0uL-i7zXn-11" value="StudentList" style="swimlane;fontStyle=0;align=center;verticalAlign=top;childLayout=stackLayout;horizontal=1;startSize=26;horizontalStack=0;resizeParent=1;resizeLast=0;collapsible=1;marginBottom=0;rounded=0;shadow=0;strokeWidth=1;swimlaneFillColor=default;" parent="WIyWlLk6GJQsqaUBKTNV-1" vertex="1">
          <mxGeometry x="1560" y="20" width="500" height="482" as="geometry">
            <mxRectangle x="550" y="140" width="160" height="26" as="alternateBounds" />
          </mxGeometry>
        </mxCell>
        <mxCell id="7bPtvLklRIi0uL-i7zXn-12" value="«get/set»+list: Student[ ]" style="text;align=left;verticalAlign=top;spacingLeft=4;spacingRight=4;overflow=hidden;rotatable=0;points=[[0,0.5],[1,0.5]];portConstraint=eastwest;rounded=0;shadow=0;html=0;" parent="7bPtvLklRIi0uL-i7zXn-11" vertex="1">
          <mxGeometry y="26" width="500" height="26" as="geometry" />
        </mxCell>
        <mxCell id="7bPtvLklRIi0uL-i7zXn-13" value="«get/set»+file: String" style="text;align=left;verticalAlign=top;spacingLeft=4;spacingRight=4;overflow=hidden;rotatable=0;points=[[0,0.5],[1,0.5]];portConstraint=eastwest;rounded=0;shadow=0;html=0;" parent="7bPtvLklRIi0uL-i7zXn-11" vertex="1">
          <mxGeometry y="52" width="500" height="26" as="geometry" />
        </mxCell>
        <mxCell id="7bPtvLklRIi0uL-i7zXn-14" value="«get/set»+format: BasicFormat" style="text;align=left;verticalAlign=top;spacingLeft=4;spacingRight=4;overflow=hidden;rotatable=0;points=[[0,0.5],[1,0.5]];portConstraint=eastwest;rounded=0;shadow=0;html=0;" parent="7bPtvLklRIi0uL-i7zXn-11" vertex="1">
          <mxGeometry y="78" width="500" height="26" as="geometry" />
        </mxCell>
        <mxCell id="7bPtvLklRIi0uL-i7zXn-18" value="" style="line;html=1;strokeWidth=1;align=left;verticalAlign=middle;spacingTop=-1;spacingLeft=3;spacingRight=3;rotatable=0;labelPosition=right;points=[];portConstraint=eastwest;" parent="7bPtvLklRIi0uL-i7zXn-11" vertex="1">
          <mxGeometry y="104" width="500" height="22" as="geometry" />
        </mxCell>
        <mxCell id="7bPtvLklRIi0uL-i7zXn-34" value="+initialize(file: String): void" style="text;align=left;verticalAlign=top;spacingLeft=4;spacingRight=4;overflow=hidden;rotatable=0;points=[[0,0.5],[1,0.5]];portConstraint=eastwest;fontStyle=0" parent="7bPtvLklRIi0uL-i7zXn-11" vertex="1">
          <mxGeometry y="126" width="500" height="26" as="geometry" />
        </mxCell>
        <mxCell id="7bPtvLklRIi0uL-i7zXn-36" value="+read_student_list(rfile: String): void" style="text;align=left;verticalAlign=top;spacingLeft=4;spacingRight=4;overflow=hidden;rotatable=0;points=[[0,0.5],[1,0.5]];portConstraint=eastwest;fontStyle=0" parent="7bPtvLklRIi0uL-i7zXn-11" vertex="1">
          <mxGeometry y="152" width="500" height="26" as="geometry" />
        </mxCell>
        <mxCell id="7bPtvLklRIi0uL-i7zXn-37" value="+write_student_list(rfile: String): void" style="text;align=left;verticalAlign=top;spacingLeft=4;spacingRight=4;overflow=hidden;rotatable=0;points=[[0,0.5],[1,0.5]];portConstraint=eastwest;fontStyle=0" parent="7bPtvLklRIi0uL-i7zXn-11" vertex="1">
          <mxGeometry y="178" width="500" height="26" as="geometry" />
        </mxCell>
        <mxCell id="7bPtvLklRIi0uL-i7zXn-38" value="+get_student_by_id(id: Int): void" style="text;align=left;verticalAlign=top;spacingLeft=4;spacingRight=4;overflow=hidden;rotatable=0;points=[[0,0.5],[1,0.5]];portConstraint=eastwest;fontStyle=0" parent="7bPtvLklRIi0uL-i7zXn-11" vertex="1">
          <mxGeometry y="204" width="500" height="26" as="geometry" />
        </mxCell>
        <mxCell id="7bPtvLklRIi0uL-i7zXn-39" value="+get_k_n_student_short_list(k: Int, n: Int, data_list: DataList): void" style="text;align=left;verticalAlign=top;spacingLeft=4;spacingRight=4;overflow=hidden;rotatable=0;points=[[0,0.5],[1,0.5]];portConstraint=eastwest;fontStyle=0" parent="7bPtvLklRIi0uL-i7zXn-11" vertex="1">
          <mxGeometry y="230" width="500" height="26" as="geometry" />
        </mxCell>
        <mxCell id="7bPtvLklRIi0uL-i7zXn-40" value="+sort_by_surname_initials(): void" style="text;align=left;verticalAlign=top;spacingLeft=4;spacingRight=4;overflow=hidden;rotatable=0;points=[[0,0.5],[1,0.5]];portConstraint=eastwest;fontStyle=0" parent="7bPtvLklRIi0uL-i7zXn-11" vertex="1">
          <mxGeometry y="256" width="500" height="26" as="geometry" />
        </mxCell>
        <mxCell id="7bPtvLklRIi0uL-i7zXn-41" value="+append_student(student: Student): void" style="text;align=left;verticalAlign=top;spacingLeft=4;spacingRight=4;overflow=hidden;rotatable=0;points=[[0,0.5],[1,0.5]];portConstraint=eastwest;fontStyle=0" parent="7bPtvLklRIi0uL-i7zXn-11" vertex="1">
          <mxGeometry y="282" width="500" height="26" as="geometry" />
        </mxCell>
        <mxCell id="7bPtvLklRIi0uL-i7zXn-42" value="+replace_student(student: Student, id: Int): void" style="text;align=left;verticalAlign=top;spacingLeft=4;spacingRight=4;overflow=hidden;rotatable=0;points=[[0,0.5],[1,0.5]];portConstraint=eastwest;fontStyle=0" parent="7bPtvLklRIi0uL-i7zXn-11" vertex="1">
          <mxGeometry y="308" width="500" height="26" as="geometry" />
        </mxCell>
        <mxCell id="7bPtvLklRIi0uL-i7zXn-43" value="+delete_student(id: Int): void" style="text;align=left;verticalAlign=top;spacingLeft=4;spacingRight=4;overflow=hidden;rotatable=0;points=[[0,0.5],[1,0.5]];portConstraint=eastwest;fontStyle=0" parent="7bPtvLklRIi0uL-i7zXn-11" vertex="1">
          <mxGeometry y="334" width="500" height="26" as="geometry" />
        </mxCell>
        <mxCell id="7bPtvLklRIi0uL-i7zXn-44" value="+student_count(): Int" style="text;align=left;verticalAlign=top;spacingLeft=4;spacingRight=4;overflow=hidden;rotatable=0;points=[[0,0.5],[1,0.5]];portConstraint=eastwest;fontStyle=0" parent="7bPtvLklRIi0uL-i7zXn-11" vertex="1">
          <mxGeometry y="360" width="500" height="26" as="geometry" />
        </mxCell>
        <mxCell id="7bPtvLklRIi0uL-i7zXn-45" value="-get_id(): Int" style="text;align=left;verticalAlign=top;spacingLeft=4;spacingRight=4;overflow=hidden;rotatable=0;points=[[0,0.5],[1,0.5]];portConstraint=eastwest;fontStyle=0" parent="7bPtvLklRIi0uL-i7zXn-11" vertex="1">
          <mxGeometry y="386" width="500" height="26" as="geometry" />
        </mxCell>
        <mxCell id="7bPtvLklRIi0uL-i7zXn-47" value="BasicFormat" style="swimlane;fontStyle=0;align=center;verticalAlign=top;childLayout=stackLayout;horizontal=1;startSize=26;horizontalStack=0;resizeParent=1;resizeLast=0;collapsible=1;marginBottom=0;rounded=0;shadow=0;strokeWidth=1;swimlaneFillColor=default;" parent="WIyWlLk6GJQsqaUBKTNV-1" vertex="1">
          <mxGeometry x="2430" y="140" width="275" height="260" as="geometry">
            <mxRectangle x="550" y="140" width="160" height="26" as="alternateBounds" />
          </mxGeometry>
        </mxCell>
        <mxCell id="7bPtvLklRIi0uL-i7zXn-48" value="" style="line;html=1;strokeWidth=1;align=left;verticalAlign=middle;spacingTop=-1;spacingLeft=3;spacingRight=3;rotatable=0;labelPosition=right;points=[];portConstraint=eastwest;" parent="7bPtvLklRIi0uL-i7zXn-47" vertex="1">
          <mxGeometry y="26" width="275" height="22" as="geometry" />
        </mxCell>
        <mxCell id="U0iIFxGk2RzKpcISDA45-18" value="protected" style="text;align=left;verticalAlign=top;spacingLeft=4;spacingRight=4;overflow=hidden;rotatable=0;points=[[0,0.5],[1,0.5]];portConstraint=eastwest;" vertex="1" parent="7bPtvLklRIi0uL-i7zXn-47">
          <mxGeometry y="48" width="275" height="26" as="geometry" />
        </mxCell>
        <mxCell id="7bPtvLklRIi0uL-i7zXn-49" value="+text_to_hash(str: String): Hash[ ] " style="text;align=left;verticalAlign=top;spacingLeft=4;spacingRight=4;overflow=hidden;rotatable=0;points=[[0,0.5],[1,0.5]];portConstraint=eastwest;" parent="7bPtvLklRIi0uL-i7zXn-47" vertex="1">
          <mxGeometry y="74" width="275" height="26" as="geometry" />
        </mxCell>
        <mxCell id="7bPtvLklRIi0uL-i7zXn-50" value="+hash_to_format(hash Hash[ ]): String[" style="text;align=left;verticalAlign=top;spacingLeft=4;spacingRight=4;overflow=hidden;rotatable=0;points=[[0,0.5],[1,0.5]];portConstraint=eastwest;" parent="7bPtvLklRIi0uL-i7zXn-47" vertex="1">
          <mxGeometry y="100" width="275" height="26" as="geometry" />
        </mxCell>
        <mxCell id="U0iIFxGk2RzKpcISDA45-15" value="+read_file(rfile: String): String" style="text;align=left;verticalAlign=top;spacingLeft=4;spacingRight=4;overflow=hidden;rotatable=0;points=[[0,0.5],[1,0.5]];portConstraint=eastwest;" vertex="1" parent="7bPtvLklRIi0uL-i7zXn-47">
          <mxGeometry y="126" width="275" height="26" as="geometry" />
        </mxCell>
        <mxCell id="U0iIFxGk2RzKpcISDA45-17" value="+write_file(wfile: String, data: String): void" style="text;align=left;verticalAlign=top;spacingLeft=4;spacingRight=4;overflow=hidden;rotatable=0;points=[[0,0.5],[1,0.5]];portConstraint=eastwest;" vertex="1" parent="7bPtvLklRIi0uL-i7zXn-47">
          <mxGeometry y="152" width="275" height="26" as="geometry" />
        </mxCell>
        <mxCell id="U0iIFxGk2RzKpcISDA45-19" value="public" style="text;align=left;verticalAlign=top;spacingLeft=4;spacingRight=4;overflow=hidden;rotatable=0;points=[[0,0.5],[1,0.5]];portConstraint=eastwest;" vertex="1" parent="7bPtvLklRIi0uL-i7zXn-47">
          <mxGeometry y="178" width="275" height="26" as="geometry" />
        </mxCell>
        <mxCell id="U0iIFxGk2RzKpcISDA45-20" value="+file_data_to_hash(rfile: String): Hash[ ]" style="text;align=left;verticalAlign=top;spacingLeft=4;spacingRight=4;overflow=hidden;rotatable=0;points=[[0,0.5],[1,0.5]];portConstraint=eastwest;" vertex="1" parent="7bPtvLklRIi0uL-i7zXn-47">
          <mxGeometry y="204" width="275" height="26" as="geometry" />
        </mxCell>
        <mxCell id="U0iIFxGk2RzKpcISDA45-21" value="+hash_to_file(wfile: String, hash: Hash[ ]): void" style="text;align=left;verticalAlign=top;spacingLeft=4;spacingRight=4;overflow=hidden;rotatable=0;points=[[0,0.5],[1,0.5]];portConstraint=eastwest;" vertex="1" parent="7bPtvLklRIi0uL-i7zXn-47">
          <mxGeometry y="230" width="275" height="26" as="geometry" />
        </mxCell>
        <mxCell id="7bPtvLklRIi0uL-i7zXn-51" value="YAMLFormat" style="swimlane;fontStyle=0;align=center;verticalAlign=top;childLayout=stackLayout;horizontal=1;startSize=26;horizontalStack=0;resizeParent=1;resizeLast=0;collapsible=1;marginBottom=0;rounded=0;shadow=0;strokeWidth=1;swimlaneFillColor=default;" parent="WIyWlLk6GJQsqaUBKTNV-1" vertex="1">
          <mxGeometry x="2130" y="580" width="230" height="130" as="geometry">
            <mxRectangle x="550" y="140" width="160" height="26" as="alternateBounds" />
          </mxGeometry>
        </mxCell>
        <mxCell id="7bPtvLklRIi0uL-i7zXn-52" value="" style="line;html=1;strokeWidth=1;align=left;verticalAlign=middle;spacingTop=-1;spacingLeft=3;spacingRight=3;rotatable=0;labelPosition=right;points=[];portConstraint=eastwest;" parent="7bPtvLklRIi0uL-i7zXn-51" vertex="1">
          <mxGeometry y="26" width="230" height="22" as="geometry" />
        </mxCell>
        <mxCell id="7bPtvLklRIi0uL-i7zXn-53" value="+text_to_hash(str: String): Hash[ ] " style="text;align=left;verticalAlign=top;spacingLeft=4;spacingRight=4;overflow=hidden;rotatable=0;points=[[0,0.5],[1,0.5]];portConstraint=eastwest;" parent="7bPtvLklRIi0uL-i7zXn-51" vertex="1">
          <mxGeometry y="48" width="230" height="26" as="geometry" />
        </mxCell>
        <mxCell id="7bPtvLklRIi0uL-i7zXn-54" value="+hash_to_format(hash Hash[ ]): String[ " style="text;align=left;verticalAlign=top;spacingLeft=4;spacingRight=4;overflow=hidden;rotatable=0;points=[[0,0.5],[1,0.5]];portConstraint=eastwest;" parent="7bPtvLklRIi0uL-i7zXn-51" vertex="1">
          <mxGeometry y="74" width="230" height="26" as="geometry" />
        </mxCell>
        <mxCell id="7bPtvLklRIi0uL-i7zXn-55" value="JSONFormat" style="swimlane;fontStyle=0;align=center;verticalAlign=top;childLayout=stackLayout;horizontal=1;startSize=26;horizontalStack=0;resizeParent=1;resizeLast=0;collapsible=1;marginBottom=0;rounded=0;shadow=0;strokeWidth=1;swimlaneFillColor=default;" parent="WIyWlLk6GJQsqaUBKTNV-1" vertex="1">
          <mxGeometry x="2420" y="580" width="230" height="130" as="geometry">
            <mxRectangle x="550" y="140" width="160" height="26" as="alternateBounds" />
          </mxGeometry>
        </mxCell>
        <mxCell id="7bPtvLklRIi0uL-i7zXn-56" value="" style="line;html=1;strokeWidth=1;align=left;verticalAlign=middle;spacingTop=-1;spacingLeft=3;spacingRight=3;rotatable=0;labelPosition=right;points=[];portConstraint=eastwest;" parent="7bPtvLklRIi0uL-i7zXn-55" vertex="1">
          <mxGeometry y="26" width="230" height="22" as="geometry" />
        </mxCell>
        <mxCell id="7bPtvLklRIi0uL-i7zXn-57" value="+text_to_hash(str: String): Hash[ ] " style="text;align=left;verticalAlign=top;spacingLeft=4;spacingRight=4;overflow=hidden;rotatable=0;points=[[0,0.5],[1,0.5]];portConstraint=eastwest;" parent="7bPtvLklRIi0uL-i7zXn-55" vertex="1">
          <mxGeometry y="48" width="230" height="26" as="geometry" />
        </mxCell>
        <mxCell id="7bPtvLklRIi0uL-i7zXn-58" value="+hash_to_format(hash Hash[ ]): String[ " style="text;align=left;verticalAlign=top;spacingLeft=4;spacingRight=4;overflow=hidden;rotatable=0;points=[[0,0.5],[1,0.5]];portConstraint=eastwest;" parent="7bPtvLklRIi0uL-i7zXn-55" vertex="1">
          <mxGeometry y="74" width="230" height="26" as="geometry" />
        </mxCell>
        <mxCell id="7bPtvLklRIi0uL-i7zXn-59" value="TXTFormat" style="swimlane;fontStyle=0;align=center;verticalAlign=top;childLayout=stackLayout;horizontal=1;startSize=26;horizontalStack=0;resizeParent=1;resizeLast=0;collapsible=1;marginBottom=0;rounded=0;shadow=0;strokeWidth=1;swimlaneFillColor=default;" parent="WIyWlLk6GJQsqaUBKTNV-1" vertex="1">
          <mxGeometry x="2710" y="580" width="220" height="130" as="geometry">
            <mxRectangle x="550" y="140" width="160" height="26" as="alternateBounds" />
          </mxGeometry>
        </mxCell>
        <mxCell id="7bPtvLklRIi0uL-i7zXn-60" value="" style="line;html=1;strokeWidth=1;align=left;verticalAlign=middle;spacingTop=-1;spacingLeft=3;spacingRight=3;rotatable=0;labelPosition=right;points=[];portConstraint=eastwest;" parent="7bPtvLklRIi0uL-i7zXn-59" vertex="1">
          <mxGeometry y="26" width="220" height="22" as="geometry" />
        </mxCell>
        <mxCell id="7bPtvLklRIi0uL-i7zXn-61" value="+text_to_hash(str: String): Hash[ ] " style="text;align=left;verticalAlign=top;spacingLeft=4;spacingRight=4;overflow=hidden;rotatable=0;points=[[0,0.5],[1,0.5]];portConstraint=eastwest;" parent="7bPtvLklRIi0uL-i7zXn-59" vertex="1">
          <mxGeometry y="48" width="220" height="26" as="geometry" />
        </mxCell>
        <mxCell id="7bPtvLklRIi0uL-i7zXn-62" value="+hash_to_format(hash Hash[ ]): String " style="text;align=left;verticalAlign=top;spacingLeft=4;spacingRight=4;overflow=hidden;rotatable=0;points=[[0,0.5],[1,0.5]];portConstraint=eastwest;" parent="7bPtvLklRIi0uL-i7zXn-59" vertex="1">
          <mxGeometry y="74" width="220" height="26" as="geometry" />
        </mxCell>
        <mxCell id="7bPtvLklRIi0uL-i7zXn-63" value="-get_string(hash: Hash): String " style="text;align=left;verticalAlign=top;spacingLeft=4;spacingRight=4;overflow=hidden;rotatable=0;points=[[0,0.5],[1,0.5]];portConstraint=eastwest;" parent="7bPtvLklRIi0uL-i7zXn-59" vertex="1">
          <mxGeometry y="100" width="220" height="26" as="geometry" />
        </mxCell>
        <mxCell id="7bPtvLklRIi0uL-i7zXn-64" value="" style="endArrow=block;endFill=0;endSize=24;html=1;rounded=0;entryX=0.25;entryY=1;entryDx=0;entryDy=0;exitX=0.5;exitY=0;exitDx=0;exitDy=0;" parent="WIyWlLk6GJQsqaUBKTNV-1" source="7bPtvLklRIi0uL-i7zXn-51" target="7bPtvLklRIi0uL-i7zXn-47" edge="1">
          <mxGeometry width="160" relative="1" as="geometry">
            <mxPoint x="2640" y="550" as="sourcePoint" />
            <mxPoint x="2800" y="550" as="targetPoint" />
          </mxGeometry>
        </mxCell>
        <mxCell id="7bPtvLklRIi0uL-i7zXn-65" value="" style="endArrow=block;endFill=0;endSize=24;html=1;rounded=0;entryX=0.5;entryY=1;entryDx=0;entryDy=0;exitX=0.5;exitY=0;exitDx=0;exitDy=0;" parent="WIyWlLk6GJQsqaUBKTNV-1" source="7bPtvLklRIi0uL-i7zXn-55" target="7bPtvLklRIi0uL-i7zXn-47" edge="1">
          <mxGeometry width="160" relative="1" as="geometry">
            <mxPoint x="2510" y="530" as="sourcePoint" />
            <mxPoint x="2600" y="370" as="targetPoint" />
          </mxGeometry>
        </mxCell>
        <mxCell id="7bPtvLklRIi0uL-i7zXn-66" value="" style="endArrow=block;endFill=0;endSize=24;html=1;rounded=0;entryX=0.75;entryY=1;entryDx=0;entryDy=0;exitX=0.5;exitY=0;exitDx=0;exitDy=0;" parent="WIyWlLk6GJQsqaUBKTNV-1" source="7bPtvLklRIi0uL-i7zXn-59" target="7bPtvLklRIi0uL-i7zXn-47" edge="1">
          <mxGeometry width="160" relative="1" as="geometry">
            <mxPoint x="3060" y="530" as="sourcePoint" />
            <mxPoint x="2600" y="370" as="targetPoint" />
          </mxGeometry>
        </mxCell>
        <mxCell id="7bPtvLklRIi0uL-i7zXn-67" value="1" style="endArrow=none;html=1;endSize=12;startArrow=diamondThin;startSize=14;startFill=1;edgeStyle=orthogonalEdgeStyle;align=left;verticalAlign=bottom;rounded=0;exitX=1;exitY=0.5;exitDx=0;exitDy=0;entryX=0.5;entryY=0;entryDx=0;entryDy=0;endFill=0;" parent="WIyWlLk6GJQsqaUBKTNV-1" source="7bPtvLklRIi0uL-i7zXn-14" target="7bPtvLklRIi0uL-i7zXn-47" edge="1">
          <mxGeometry x="-1" y="3" relative="1" as="geometry">
            <mxPoint x="2340" y="210" as="sourcePoint" />
            <mxPoint x="2580" y="200" as="targetPoint" />
          </mxGeometry>
        </mxCell>
        <mxCell id="7bPtvLklRIi0uL-i7zXn-68" value="Module: YAML" style="swimlane;fontStyle=0;align=center;verticalAlign=top;childLayout=stackLayout;horizontal=1;startSize=26;horizontalStack=0;resizeParent=1;resizeLast=0;collapsible=1;marginBottom=0;rounded=0;shadow=0;strokeWidth=1;swimlaneFillColor=default;" parent="WIyWlLk6GJQsqaUBKTNV-1" vertex="1">
          <mxGeometry x="2130" y="810" width="230" height="40" as="geometry">
            <mxRectangle x="550" y="140" width="160" height="26" as="alternateBounds" />
          </mxGeometry>
        </mxCell>
        <mxCell id="7bPtvLklRIi0uL-i7zXn-69" value="Module: Enumerable" style="swimlane;fontStyle=0;align=center;verticalAlign=top;childLayout=stackLayout;horizontal=1;startSize=26;horizontalStack=0;resizeParent=1;resizeLast=0;collapsible=1;marginBottom=0;rounded=0;shadow=0;strokeWidth=1;swimlaneFillColor=default;" parent="WIyWlLk6GJQsqaUBKTNV-1" vertex="1">
          <mxGeometry x="2420" y="810" width="240" height="40" as="geometry">
            <mxRectangle x="550" y="140" width="160" height="26" as="alternateBounds" />
          </mxGeometry>
        </mxCell>
        <mxCell id="7bPtvLklRIi0uL-i7zXn-70" value="Extends" style="endArrow=open;endSize=16;endFill=0;html=1;rounded=0;entryX=0.5;entryY=1;entryDx=0;entryDy=0;exitX=0.5;exitY=0;exitDx=0;exitDy=0;dashed=1;" parent="WIyWlLk6GJQsqaUBKTNV-1" source="7bPtvLklRIi0uL-i7zXn-68" target="7bPtvLklRIi0uL-i7zXn-51" edge="1">
          <mxGeometry width="160" relative="1" as="geometry">
            <mxPoint x="1492" y="800" as="sourcePoint" />
            <mxPoint x="1340" y="552" as="targetPoint" />
          </mxGeometry>
        </mxCell>
        <mxCell id="7bPtvLklRIi0uL-i7zXn-71" value="Extends" style="endArrow=open;endSize=16;endFill=0;html=1;rounded=0;entryX=0.5;entryY=1;entryDx=0;entryDy=0;exitX=0.5;exitY=0;exitDx=0;exitDy=0;dashed=1;" parent="WIyWlLk6GJQsqaUBKTNV-1" source="7bPtvLklRIi0uL-i7zXn-69" target="7bPtvLklRIi0uL-i7zXn-55" edge="1">
          <mxGeometry width="160" relative="1" as="geometry">
            <mxPoint x="2150" y="820" as="sourcePoint" />
            <mxPoint x="2150" y="720" as="targetPoint" />
          </mxGeometry>
        </mxCell>
        <mxCell id="7bPtvLklRIi0uL-i7zXn-72" value="Extends" style="endArrow=open;endSize=16;endFill=0;html=1;rounded=0;entryX=0.5;entryY=1;entryDx=0;entryDy=0;dashed=1;exitX=1;exitY=0.5;exitDx=0;exitDy=0;" parent="WIyWlLk6GJQsqaUBKTNV-1" source="9F78Hj_hJA_kpTCqYAxS-59" target="7bPtvLklRIi0uL-i7zXn-59" edge="1">
          <mxGeometry width="160" relative="1" as="geometry">
            <mxPoint x="1730" y="840" as="sourcePoint" />
            <mxPoint x="3050" y="700" as="targetPoint" />
            <Array as="points">
              <mxPoint x="2190" y="890" />
              <mxPoint x="2820" y="900" />
            </Array>
          </mxGeometry>
        </mxCell>
        <mxCell id="7bPtvLklRIi0uL-i7zXn-73" value="Use" style="endArrow=open;endSize=12;dashed=1;html=1;rounded=0;entryX=1;entryY=0.5;entryDx=0;entryDy=0;exitX=0;exitY=0.5;exitDx=0;exitDy=0;" parent="WIyWlLk6GJQsqaUBKTNV-1" source="LajVdY8BO4-VR4iBwgiG-19" target="LajVdY8BO4-VR4iBwgiG-6" edge="1">
          <mxGeometry width="160" relative="1" as="geometry">
            <mxPoint x="820" y="980" as="sourcePoint" />
            <mxPoint x="980" y="980" as="targetPoint" />
          </mxGeometry>
        </mxCell>
        <mxCell id="7bPtvLklRIi0uL-i7zXn-74" value="Use" style="endArrow=open;endSize=12;dashed=1;html=1;rounded=0;exitX=0.5;exitY=0;exitDx=0;exitDy=0;entryX=1;entryY=0.5;entryDx=0;entryDy=0;" parent="WIyWlLk6GJQsqaUBKTNV-1" source="7bPtvLklRIi0uL-i7zXn-11" target="9F78Hj_hJA_kpTCqYAxS-4" edge="1">
          <mxGeometry width="160" relative="1" as="geometry">
            <mxPoint x="1660" y="400" as="sourcePoint" />
            <mxPoint x="1820" y="400" as="targetPoint" />
            <Array as="points">
              <mxPoint x="1810" y="-359" />
            </Array>
          </mxGeometry>
        </mxCell>
        <mxCell id="7bPtvLklRIi0uL-i7zXn-75" value="Use" style="endArrow=open;endSize=12;dashed=1;html=1;rounded=0;exitX=0.5;exitY=1;exitDx=0;exitDy=0;entryX=0.5;entryY=0;entryDx=0;entryDy=0;" parent="WIyWlLk6GJQsqaUBKTNV-1" source="7bPtvLklRIi0uL-i7zXn-11" target="LajVdY8BO4-VR4iBwgiG-23" edge="1">
          <mxGeometry width="160" relative="1" as="geometry">
            <mxPoint x="1800" y="209" as="sourcePoint" />
            <mxPoint x="1430" y="141" as="targetPoint" />
          </mxGeometry>
        </mxCell>
        <mxCell id="7bPtvLklRIi0uL-i7zXn-76" value="Use" style="endArrow=open;endSize=12;dashed=1;html=1;rounded=0;exitX=0;exitY=0.5;exitDx=0;exitDy=0;" parent="WIyWlLk6GJQsqaUBKTNV-1" source="7bPtvLklRIi0uL-i7zXn-45" edge="1">
          <mxGeometry width="160" relative="1" as="geometry">
            <mxPoint x="1800" y="313" as="sourcePoint" />
            <mxPoint x="700" y="413" as="targetPoint" />
          </mxGeometry>
        </mxCell>
        <mxCell id="U0iIFxGk2RzKpcISDA45-0" value="DBSingleton" style="swimlane;fontStyle=0;align=center;verticalAlign=top;childLayout=stackLayout;horizontal=1;startSize=26;horizontalStack=0;resizeParent=1;resizeLast=0;collapsible=1;marginBottom=0;rounded=0;shadow=0;strokeWidth=1;swimlaneFillColor=default;" vertex="1" parent="WIyWlLk6GJQsqaUBKTNV-1">
          <mxGeometry x="2720" y="-50" width="500" height="140" as="geometry">
            <mxRectangle x="550" y="140" width="160" height="26" as="alternateBounds" />
          </mxGeometry>
        </mxCell>
        <mxCell id="U0iIFxGk2RzKpcISDA45-1" value="«get/set»-db-client: Mysql2::Client" style="text;align=left;verticalAlign=top;spacingLeft=4;spacingRight=4;overflow=hidden;rotatable=0;points=[[0,0.5],[1,0.5]];portConstraint=eastwest;" vertex="1" parent="U0iIFxGk2RzKpcISDA45-0">
          <mxGeometry y="26" width="500" height="26" as="geometry" />
        </mxCell>
        <mxCell id="U0iIFxGk2RzKpcISDA45-5" value="" style="line;html=1;strokeWidth=1;align=left;verticalAlign=middle;spacingTop=-1;spacingLeft=3;spacingRight=3;rotatable=0;labelPosition=right;points=[];portConstraint=eastwest;" vertex="1" parent="U0iIFxGk2RzKpcISDA45-0">
          <mxGeometry y="52" width="500" height="22" as="geometry" />
        </mxCell>
        <mxCell id="U0iIFxGk2RzKpcISDA45-6" value="+initialize(): void" style="text;align=left;verticalAlign=top;spacingLeft=4;spacingRight=4;overflow=hidden;rotatable=0;points=[[0,0.5],[1,0.5]];portConstraint=eastwest;" vertex="1" parent="U0iIFxGk2RzKpcISDA45-0">
          <mxGeometry y="74" width="500" height="26" as="geometry" />
        </mxCell>
        <mxCell id="U0iIFxGk2RzKpcISDA45-7" value="+instance(): Client" style="text;align=left;verticalAlign=top;spacingLeft=4;spacingRight=4;overflow=hidden;rotatable=0;points=[[0,0.5],[1,0.5]];portConstraint=eastwest;fontStyle=4" vertex="1" parent="U0iIFxGk2RzKpcISDA45-0">
          <mxGeometry y="100" width="500" height="26" as="geometry" />
        </mxCell>
        <mxCell id="U0iIFxGk2RzKpcISDA45-8" value="DBFormat" style="swimlane;fontStyle=0;align=center;verticalAlign=top;childLayout=stackLayout;horizontal=1;startSize=26;horizontalStack=0;resizeParent=1;resizeLast=0;collapsible=1;marginBottom=0;rounded=0;shadow=0;strokeWidth=1;swimlaneFillColor=default;" vertex="1" parent="WIyWlLk6GJQsqaUBKTNV-1">
          <mxGeometry x="2980" y="585" width="220" height="220" as="geometry">
            <mxRectangle x="550" y="140" width="160" height="26" as="alternateBounds" />
          </mxGeometry>
        </mxCell>
        <mxCell id="U0iIFxGk2RzKpcISDA45-25" value="«get/set»-client: Mysql2::Client" style="text;align=left;verticalAlign=top;spacingLeft=4;spacingRight=4;overflow=hidden;rotatable=0;points=[[0,0.5],[1,0.5]];portConstraint=eastwest;rounded=0;shadow=0;html=0;" vertex="1" parent="U0iIFxGk2RzKpcISDA45-8">
          <mxGeometry y="26" width="220" height="26" as="geometry" />
        </mxCell>
        <mxCell id="U0iIFxGk2RzKpcISDA45-9" value="" style="line;html=1;strokeWidth=1;align=left;verticalAlign=middle;spacingTop=-1;spacingLeft=3;spacingRight=3;rotatable=0;labelPosition=right;points=[];portConstraint=eastwest;" vertex="1" parent="U0iIFxGk2RzKpcISDA45-8">
          <mxGeometry y="52" width="220" height="40" as="geometry" />
        </mxCell>
        <mxCell id="U0iIFxGk2RzKpcISDA45-11" value="+hash_to_format(hash Hash[ ]): String " style="text;align=left;verticalAlign=top;spacingLeft=4;spacingRight=4;overflow=hidden;rotatable=0;points=[[0,0.5],[1,0.5]];portConstraint=eastwest;" vertex="1" parent="U0iIFxGk2RzKpcISDA45-8">
          <mxGeometry y="92" width="220" height="26" as="geometry" />
        </mxCell>
        <mxCell id="U0iIFxGk2RzKpcISDA45-23" value="+write_file(wfile: String, data: String): void" style="text;align=left;verticalAlign=top;spacingLeft=4;spacingRight=4;overflow=hidden;rotatable=0;points=[[0,0.5],[1,0.5]];portConstraint=eastwest;" vertex="1" parent="U0iIFxGk2RzKpcISDA45-8">
          <mxGeometry y="118" width="220" height="26" as="geometry" />
        </mxCell>
        <mxCell id="U0iIFxGk2RzKpcISDA45-22" value="+read_file(rfile: String): String" style="text;align=left;verticalAlign=top;spacingLeft=4;spacingRight=4;overflow=hidden;rotatable=0;points=[[0,0.5],[1,0.5]];portConstraint=eastwest;" vertex="1" parent="U0iIFxGk2RzKpcISDA45-8">
          <mxGeometry y="144" width="220" height="30" as="geometry" />
        </mxCell>
        <mxCell id="U0iIFxGk2RzKpcISDA45-10" value="+text_to_hash(str: String): Hash[ ] " style="text;align=left;verticalAlign=top;spacingLeft=4;spacingRight=4;overflow=hidden;rotatable=0;points=[[0,0.5],[1,0.5]];portConstraint=eastwest;" vertex="1" parent="U0iIFxGk2RzKpcISDA45-8">
          <mxGeometry y="174" width="220" height="26" as="geometry" />
        </mxCell>
        <mxCell id="U0iIFxGk2RzKpcISDA45-13" value="" style="endArrow=block;endFill=0;endSize=24;html=1;rounded=0;entryX=1;entryY=1;entryDx=0;entryDy=0;exitX=0.5;exitY=0;exitDx=0;exitDy=0;" edge="1" parent="WIyWlLk6GJQsqaUBKTNV-1" source="U0iIFxGk2RzKpcISDA45-8" target="7bPtvLklRIi0uL-i7zXn-47">
          <mxGeometry width="160" relative="1" as="geometry">
            <mxPoint x="2830" y="590" as="sourcePoint" />
            <mxPoint x="2608" y="370" as="targetPoint" />
          </mxGeometry>
        </mxCell>
        <mxCell id="U0iIFxGk2RzKpcISDA45-14" value="Use" style="endArrow=open;endSize=12;dashed=1;html=1;rounded=0;exitX=0.5;exitY=0;exitDx=0;exitDy=0;entryX=0.5;entryY=1;entryDx=0;entryDy=0;" edge="1" parent="WIyWlLk6GJQsqaUBKTNV-1" source="U0iIFxGk2RzKpcISDA45-8" target="U0iIFxGk2RzKpcISDA45-0">
          <mxGeometry width="160" relative="1" as="geometry">
            <mxPoint x="2790" y="430" as="sourcePoint" />
            <mxPoint x="2950" y="430" as="targetPoint" />
          </mxGeometry>
        </mxCell>
      </root>
    </mxGraphModel>
  </diagram>
</mxfile>
